<svg xmlns="http://www.w3.org/2000/svg" xmlns:xlink="http://www.w3.org/1999/xlink" version="1.1" width="256" height="256" viewBox="0 0 256 256" xml:space="preserve">

<defs>
</defs>
<g style="stroke: none; stroke-width: 0; stroke-dasharray: none; stroke-linecap: butt; stroke-linejoin: miter; stroke-miterlimit: 10; fill: none; fill-rule: nonzero; opacity: 1;" transform="translate(1.4065934065934016 1.4065934065934016) scale(2.81 2.81)" >
	<path d="M 44.997 22.29 c -1.703 0 -3.087 -1.385 -3.087 -3.087 s 1.385 -3.087 3.087 -3.087 s 3.087 1.385 3.087 3.087 S 46.699 22.29 44.997 22.29 z M 44.997 18.115 c -0.6 0 -1.087 0.488 -1.087 1.087 s 0.488 1.087 1.087 1.087 s 1.087 -0.488 1.087 -1.087 S 45.596 18.115 44.997 18.115 z" style="stroke: none; stroke-width: 1; stroke-dasharray: none; stroke-linecap: butt; stroke-linejoin: miter; stroke-miterlimit: 10; fill: rgb(0,0,0); fill-rule: nonzero; opacity: 1;" transform=" matrix(1 0 0 1 0 0) " stroke-linecap="round" />
	<path d="M 89.075 36.966 h -2.467 l -8.408 -26.44 c 1.143 -0.87 1.654 -2.404 1.138 -3.823 c -0.308 -0.846 -0.926 -1.521 -1.742 -1.901 s -1.73 -0.42 -2.576 -0.113 c -0.846 0.308 -1.521 0.926 -1.902 1.743 c -0.234 0.502 -0.323 1.041 -0.297 1.579 l -21.846 7.924 c -1.159 -2.112 -3.404 -3.548 -5.979 -3.548 c -3.758 0 -6.815 3.058 -6.815 6.815 c 0 0.459 0.047 0.906 0.134 1.34 l -21.827 7.971 c -0.326 -0.428 -0.741 -0.784 -1.242 -1.018 c -0.815 -0.379 -1.731 -0.421 -2.577 -0.112 c -1.746 0.635 -2.649 2.573 -2.014 4.319 c 0.239 0.656 0.665 1.19 1.193 1.571 L 3.542 59.391 H 1.075 c -0.552 0 -1 0.447 -1 1 v 3.385 c 0 2.652 2.158 4.811 4.811 4.811 h 17.869 c 2.652 0 4.811 -2.158 4.811 -4.811 v -3.385 c 0 -0.553 -0.448 -1 -1 -1 h -2.467 l -8.307 -26.125 c 0.459 -0.332 0.837 -0.765 1.083 -1.292 c 0.234 -0.503 0.323 -1.042 0.297 -1.581 l 21.821 -7.969 c 0.611 1.134 1.535 2.073 2.654 2.707 v 34.33 c -5.867 0.379 -10.549 5.13 -10.821 11.025 H 27.82 c -0.552 0 -1 0.447 -1 1 v 5.456 c 0 0.553 0.448 1 1 1 h 34.354 c 0.553 0 1 -0.447 1 -1 v -5.456 c 0 -0.553 -0.447 -1 -1 -1 h -3.007 c -0.272 -5.896 -4.954 -10.647 -10.821 -11.025 v -34.33 c 2.067 -1.172 3.467 -3.389 3.467 -5.93 c 0 -0.477 -0.05 -0.942 -0.144 -1.392 L 73.505 9.89 c 0.246 0.324 0.547 0.599 0.898 0.816 l -8.351 26.26 h -2.467 c -0.553 0 -1 0.448 -1 1 v 3.385 c 0 2.652 2.158 4.81 4.811 4.81 h 17.869 c 2.652 0 4.811 -2.158 4.811 -4.81 v -3.385 C 90.075 37.414 89.628 36.966 89.075 36.966 z M 13.352 29.263 c 0.153 -0.056 0.312 -0.083 0.469 -0.083 c 0.198 0 0.394 0.043 0.579 0.129 c 0.332 0.154 0.583 0.429 0.708 0.772 c 0 0 0 0 0 0 c 0 0 0 0.001 0 0.001 c 0 0 0 0 0 0 c 0.124 0.343 0.109 0.715 -0.046 1.046 c -0.154 0.332 -0.429 0.583 -0.772 0.708 c -0.708 0.261 -1.498 -0.109 -1.756 -0.818 C 12.275 30.309 12.643 29.521 13.352 29.263 z M 25.566 63.775 c 0 1.55 -1.261 2.811 -2.811 2.811 H 4.886 c -1.55 0 -2.811 -1.261 -2.811 -2.811 v -2.385 h 23.491 V 63.775 z M 5.641 59.391 l 8.102 -25.477 c 0.028 0.001 0.055 0.006 0.082 0.006 c 0.024 0 0.049 -0.006 0.074 -0.006 L 22 59.391 H 5.641 z M 61.174 75.943 H 28.82 v -3.456 h 2.979 h 26.396 h 2.979 V 75.943 z M 57.18 70.487 H 32.813 c 0.28 -5.045 4.472 -9.063 9.585 -9.063 h 0.249 h 4.698 h 0.249 C 52.708 61.424 56.899 65.442 57.18 70.487 z M 46.346 59.424 h -2.698 V 25.883 c 0.436 0.088 0.887 0.135 1.349 0.135 s 0.913 -0.047 1.349 -0.135 V 59.424 z M 44.997 24.019 c -2.655 0 -4.815 -2.161 -4.815 -4.816 s 2.16 -4.815 4.815 -4.815 c 2.656 0 4.816 2.16 4.816 4.815 S 47.652 24.019 44.997 24.019 z M 74.931 7.276 c 0.155 -0.331 0.43 -0.583 0.773 -0.708 c 0.153 -0.056 0.312 -0.083 0.47 -0.083 c 0.197 0 0.394 0.043 0.578 0.129 c 0.331 0.155 0.583 0.429 0.708 0.772 c 0.258 0.71 -0.109 1.498 -0.818 1.756 c -0.344 0.126 -0.715 0.109 -1.048 -0.045 c -0.33 -0.154 -0.582 -0.428 -0.707 -0.772 c 0 0 0 0 0 0 c 0 -0.001 -0.001 -0.001 -0.001 -0.002 C 74.761 7.98 74.776 7.608 74.931 7.276 z M 76.33 11.245 l 8.179 25.721 H 68.151 L 76.33 11.245 z M 88.075 41.351 c 0 1.55 -1.261 2.811 -2.811 2.811 H 67.396 c -1.55 0 -2.811 -1.261 -2.811 -2.811 v -2.385 h 2.195 c 0.001 0 0.002 0 0.003 0 s 0.002 0 0.003 0 h 19.088 c 0.001 0 0.002 0 0.003 0 s 0.002 0 0.003 0 h 2.195 V 41.351 z" style="stroke: none; stroke-width: 1; stroke-dasharray: none; stroke-linecap: butt; stroke-linejoin: miter; stroke-miterlimit: 10; fill: rgb(0,0,0); fill-rule: nonzero; opacity: 1;" transform=" matrix(1 0 0 1 0 0) " stroke-linecap="round" />
</g>
</svg>